<?xml version="1.0" encoding="utf-8"?>
<svg version="1.1" xmlns:xlink="http://www.w3.org/1999/xlink" width="27px" height="15px" xmlns="http://www.w3.org/2000/svg">
  <g transform="matrix(1 0 0 1 -414 -2389 )">
    <path d="M 26.4990234375 12.1614583333333  C 26.8330078125 12.4913194444444  27 12.8819444444444  27 13.3333333333333  C 27 13.7847222222222  26.8330078125 14.1753472222222  26.4990234375 14.5052083333333  C 26.1650390625 14.8350694444444  25.76953125 15  25.3125 15  L 1.6875 15  C 1.23046875 15  0.8349609375 14.8350694444444  0.5009765625 14.5052083333333  C 0.1669921875 14.1753472222222  0 13.7847222222222  0 13.3333333333333  C 0 12.8819444444444  0.1669921875 12.4913194444444  0.5009765625 12.1614583333333  L 12.3134765625 0.494791666666667  C 12.6474609375 0.164930555555554  13.04296875 0  13.5 0  C 13.95703125 0  14.3525390625 0.164930555555554  14.6865234375 0.494791666666667  L 26.4990234375 12.1614583333333  Z " fill-rule="nonzero" fill="#555555" stroke="none" transform="matrix(1 0 0 1 414 2389 )" />
  </g>
</svg>