<?xml version="1.0" encoding="utf-8"?>
<svg version="1.1" xmlns:xlink="http://www.w3.org/1999/xlink" width="27px" height="15px" xmlns="http://www.w3.org/2000/svg">
  <g transform="matrix(1 0 0 1 -414 -2487 )">
    <path d="M 26.4990234375 0.494791666666667  C 26.8330078125 0.824652777777776  27 1.21527777777777  27 1.66666666666667  C 27 2.11805555555555  26.8330078125 2.50868055555555  26.4990234375 2.83854166666667  L 14.6865234375 14.5052083333333  C 14.3525390625 14.8350694444444  13.95703125 15  13.5 15  C 13.04296875 15  12.6474609375 14.8350694444444  12.3134765625 14.5052083333333  L 0.5009765625 2.83854166666667  C 0.1669921875 2.50868055555555  0 2.11805555555555  0 1.66666666666667  C 0 1.21527777777777  0.1669921875 0.824652777777776  0.5009765625 0.494791666666667  C 0.8349609375 0.164930555555554  1.23046875 0  1.6875 0  L 25.3125 0  C 25.76953125 0  26.1650390625 0.164930555555554  26.4990234375 0.494791666666667  Z " fill-rule="nonzero" fill="#555555" stroke="none" transform="matrix(1 0 0 1 414 2487 )" />
  </g>
</svg>