<?xml version="1.0" encoding="utf-8"?>
<svg version="1.1" xmlns:xlink="http://www.w3.org/1999/xlink" width="25px" height="20px" xmlns="http://www.w3.org/2000/svg">
  <g transform="matrix(1 0 0 1 -215 -1259 )">
    <path d="M 23.6049107142857 7.68465909090909  C 24.1350446428571 7.31534090909091  24.6000744047619 6.90340909090909  25 6.44886363636363  L 25 17.7272727272727  C 25 18.3522727272727  24.7814360119048 18.8873106060606  24.3443080357143 19.3323863636364  C 23.9071800595238 19.7774621212121  23.3816964285714 20  22.7678571428571 20  L 2.23214285714286 20  C 1.61830357142857 20  1.09281994047619 19.7774621212121  0.655691964285714 19.3323863636364  C 0.218563988095238 18.8873106060606  0 18.3522727272727  0 17.7272727272727  L 0 6.44886363636363  C 0.409226190476191 6.91287878787879  0.87890625 7.3248106060606  1.40904017857143 7.68465909090909  C 4.77585565476191 10.0142045454545  7.08705357142857 11.6477272727273  8.34263392857143 12.5852272727273  C 8.87276785714286 12.9829545454545  9.30292038690476 13.2930871212121  9.63309151785714 13.515625  C 9.96326264880953 13.7381628787879  10.4027157738095 13.9654356060606  10.9514508928571 14.1974431818182  C 11.5001860119048 14.4294507575758  12.01171875 14.5454545454545  12.4860491071429 14.5454545454545  L 12.5 14.5454545454545  L 12.5139508928571 14.5454545454545  C 12.98828125 14.5454545454545  13.4998139880952 14.4294507575758  14.0485491071429 14.1974431818182  C 14.5972842261905 13.9654356060606  15.0367373511905 13.7381628787879  15.3669084821429 13.515625  C 15.6970796130952 13.2930871212121  16.1272321428571 12.9829545454545  16.6573660714286 12.5852272727273  C 18.2384672619048 11.4204545454545  20.5543154761905 9.78693181818182  23.6049107142857 7.68465909090909  Z M 24.3373325892857 0.667613636363635  C 24.7791108630952 1.11268939393939  25 1.64772727272727  25 2.27272727272727  C 25 3.02083333333333  24.7721354166667 3.73579545454545  24.31640625 4.41761363636363  C 23.8606770833333 5.09943181818182  23.2933407738095 5.68181818181818  22.6143973214286 6.16477272727273  C 19.1173735119048 8.63636363636363  16.9410342261905 10.1751893939394  16.0853794642857 10.78125  C 15.9923735119048 10.8475378787879  15.7947358630952 10.9919507575758  15.4924665178571 11.2144886363636  C 15.190197172619 11.4370265151515  14.9390811011905 11.6169507575758  14.7391183035714 11.7542613636364  C 14.5391555059524 11.891571969697  14.2973400297619 12.0454545454545  14.013671875 12.2159090909091  C 13.7300037202381 12.3863636363636  13.4626116071429 12.5142045454545  13.2114955357143 12.5994318181818  C 12.9603794642857 12.6846590909091  12.7278645833333 12.7272727272727  12.5139508928571 12.7272727272727  L 12.5 12.7272727272727  L 12.4860491071429 12.7272727272727  C 12.2721354166667 12.7272727272727  12.0396205357143 12.6846590909091  11.7885044642857 12.5994318181818  C 11.5373883928571 12.5142045454545  11.2699962797619 12.3863636363636  10.986328125 12.2159090909091  C 10.7026599702381 12.0454545454545  10.4608444940476 11.891571969697  10.2608816964286 11.7542613636364  C 10.0609188988095 11.6169507575758  9.80980282738095 11.4370265151515  9.50753348214286 11.2144886363636  C 9.20526413690476 10.9919507575758  9.00762648809524 10.8475378787879  8.91462053571429 10.78125  C 8.06826636904762 10.1751893939394  6.84988839285714 9.31107954545455  5.25948660714286 8.18892045454545  C 3.66908482142857 7.06676136363636  2.71577380952381 6.39204545454545  2.39955357142857 6.16477272727273  C 1.82291666666667 5.76704545454545  1.2788318452381 5.22017045454545  0.767299107142857 4.52414772727273  C 0.255766369047619 3.828125  0 3.18181818181818  0 2.58522727272727  C 0 1.84659090909091  0.192987351190476 1.2310606060606  0.578962053571429 0.738636363636365  C 0.964936755952381 0.246212121212119  1.51599702380952 0  2.23214285714286 0  L 22.7678571428571 0  C 23.3723958333333 0  23.8955543154762 0.222537878787876  24.3373325892857 0.667613636363635  Z " fill-rule="nonzero" fill="#4389fa" stroke="none" transform="matrix(1 0 0 1 215 1259 )" />
  </g>
</svg>