<?xml version="1.0" encoding="utf-8"?>
<svg version="1.1" xmlns:xlink="http://www.w3.org/1999/xlink" width="33px" height="35px" xmlns="http://www.w3.org/2000/svg">
  <g transform="matrix(1 0 0 1 -211 -1305 )">
    <path d="M 30.0995343422584 3.046875  L 32.8079161816065 5.80078125  C 32.9359720605355 5.93098958333333  33 6.08072916666666  33 6.25  C 33 6.41927083333333  32.9359720605355 6.56901041666667  32.8079161816065 6.69921875  L 30.0995343422584 9.453125  C 29.7409778812573 9.81770833333333  29.3055878928987 10  28.7933643771828 10  L 2.97729918509895 10  C 2.64435389988359 10  2.35622817229336 9.87630208333333  2.11292200232829 9.62890625  C 1.86961583236321 9.38151041666667  1.74796274738068 9.08854166666666  1.74796274738068 8.75  L 1.74796274738068 3.75  C 1.74796274738068 3.41145833333333  1.86961583236321 3.11848958333333  2.11292200232829 2.87109375  C 2.35622817229336 2.62369791666666  2.64435389988359 2.5  2.97729918509895 3  L 14.0413271245634 3  L 14.0413271245634 1.25  C 14.0413271245634 0.911458333333332  14.162980209546 0.618489583333329  14.4062863795111 0.371093750000001  C 14.6495925494761 0.12369791666667  14.9377182770664 0  15.2706635622817 0  L 17.7293364377183 0  C 18.0622817229336 0  18.3504074505239 0.12369791666667  18.5937136204889 0.371093750000001  C 18.837019790454 0.618489583333329  18.9586728754366 0.911458333333332  18.9586728754366 1.25  L 18.9586728754366 2.5  L 28.7933643771828 2.5  C 29.3055878928987 2.5  29.7409778812573 2.68229166666667  30.0995343422584 3.046875  Z M 14 33.75  L 14 23.75  L 19 23.75  L 19 33.75  C 18.9586728754366 34.0885416666667  18.837019790454 34.3815104166667  18.5937136204889 34.62890625  C 18.3504074505239 34.8763020833333  18.0622817229336 35  17.7293364377183 35  L 15.2706635622817 35  C 14.9377182770664 35  14.6495925494761 34.8763020833333  14.4062863795111 34.62890625  C 14.162980209546 34.3815104166667  14.0413271245634 34.0885416666667  14 33.75  Z M 18.9586728754366 15  L 30.0227008149011 15  C 30.3556461001164 15  30.6437718277066 15.1236979166667  30.8870779976717 15.37109375  C 31.1303841676368 15.6184895833333  31.2520372526193 15.9114583333333  31.2520372526193 16.25  L 31.2520372526193 21.25  C 31.2520372526193 21.5885416666667  31.1303841676368 21.8815104166667  30.8870779976717 22.12890625  C 30.6437718277066 22.3763020833333  30.3556461001164 22.5  30.0227008149011 22  L 4.20663562281723 22  C 3.69441210710128 22.5  3.25902211874272 22.3177083333333  2.90046565774156 21.953125  L 0.192083818393481 19.19921875  C 0.0640279394644936 19.0690104166667  0 18.9192708333333  0 18.75  C 0 18.5807291666667  0.0640279394644936 18.4309895833333  0.192083818393481 18.30078125  L 2.90046565774156 15.546875  C 3.25902211874272 15.1822916666667  3.69441210710128 15  4.20663562281723 15  L 14.0413271245634 15  L 14.0413271245634 11.25  L 18.9586728754366 11.25  L 18.9586728754366 15  Z " fill-rule="nonzero" fill="#4389fa" stroke="none" transform="matrix(1 0 0 1 211 1305 )" />
  </g>
</svg>